<svg id="add" xmlns="http://www.w3.org/2000/svg" width="16.334" height="16.334" viewBox="0 0 16.334 16.334">
  <g id="Group_1091" data-name="Group 1091">
    <g id="Group_1090" data-name="Group 1090">
      <path id="Path_373" data-name="Path 373" d="M5.94,0H1.485A1.486,1.486,0,0,0,0,1.485V5.94A1.486,1.486,0,0,0,1.485,7.425H5.94A1.486,1.486,0,0,0,7.425,5.94V1.485A1.486,1.486,0,0,0,5.94,0Z" fill="#a5adc6"/>
      <path id="Path_374" data-name="Path 374" d="M261.94,0h-4.455A1.486,1.486,0,0,0,256,1.485V5.94a1.486,1.486,0,0,0,1.485,1.485h4.455a1.486,1.486,0,0,0,1.485-1.485V1.485A1.486,1.486,0,0,0,261.94,0Z" transform="translate(-247.091)" fill="#a5adc6"/>
      <path id="Path_375" data-name="Path 375" d="M5.94,256H1.485A1.486,1.486,0,0,0,0,257.485v4.455a1.486,1.486,0,0,0,1.485,1.485H5.94a1.486,1.486,0,0,0,1.485-1.485v-4.455A1.486,1.486,0,0,0,5.94,256Z" transform="translate(0 -247.091)" fill="#a5adc6"/>
      <path id="Path_376" data-name="Path 376" d="M302.75,300.151h-1.114v-1.114a.371.371,0,0,0-.371-.371h-.742a.371.371,0,0,0-.371.371v1.114h-1.114a.371.371,0,0,0-.371.371v.742a.371.371,0,0,0,.371.371h1.114v1.114a.371.371,0,0,0,.371.371h.742a.371.371,0,0,0,.371-.371v-1.114h1.114a.371.371,0,0,0,.371-.371v-.742A.371.371,0,0,0,302.75,300.151Z" transform="translate(-288.272 -288.272)" fill="#a5adc6"/>
    </g>
  </g>
</svg>
