<svg xmlns="http://www.w3.org/2000/svg" width="36" height="36" viewBox="0 0 36 36">
  <g id="Group_1095" data-name="Group 1095" transform="translate(-127.822 -143.822)">
    <rect id="view-box" width="36" height="36" transform="translate(127.822 143.822)" fill="none"/>
    <path id="Shape" d="M8.911,25.247V24.5H3.342A3.345,3.345,0,0,1,0,21.163V20.6a3.776,3.776,0,0,1,2.1-3.4,1.852,1.852,0,0,0,1.024-1.5l.663-7.293A9.248,9.248,0,0,1,15.769.425a8.135,8.135,0,0,0-.942,2.041,7.12,7.12,0,0,0-1.833-.238A6.983,6.983,0,0,0,6.007,8.611L5.344,15.9A4.068,4.068,0,0,1,3.1,19.187,1.567,1.567,0,0,0,2.228,20.6v.567a1.116,1.116,0,0,0,1.113,1.115H22.648a1.116,1.116,0,0,0,1.115-1.115V20.6a1.564,1.564,0,0,0-.87-1.407A4.067,4.067,0,0,1,20.647,15.9l-.294-3.237a8.128,8.128,0,0,0,2.267.329l.246,2.707a1.871,1.871,0,0,0,1.019,1.493,3.783,3.783,0,0,1,2.105,3.4v.567A3.344,3.344,0,0,1,22.648,24.5H17.079v.743a4.084,4.084,0,0,1-8.168,0Zm2.227,0a1.857,1.857,0,0,0,3.713,0V24.5H11.138ZM22.347,10.015a5.177,5.177,0,0,1-2.3-.688l-.065-.716a6.987,6.987,0,0,0-2.447-4.73,5.2,5.2,0,0,1,.906-2.105A9.239,9.239,0,0,1,22.2,8.409l.146,1.605v0Z" transform="translate(132.827 147.342)" fill="#929bb5"/>
    <path id="Shape-2" data-name="Shape" d="M5.2,10.4a5.2,5.2,0,1,1,5.2-5.2A5.2,5.2,0,0,1,5.2,10.4Z" transform="translate(150.277 146.97)" fill="#ff6359"/>
  </g>
</svg>
