<svg id="bars" xmlns="http://www.w3.org/2000/svg" width="16.334" height="16.334" viewBox="0 0 16.334 16.334">
  <path id="Path_380" data-name="Path 380" d="M32.436,7.657a1.428,1.428,0,0,0,.994-.4l1.417.708a1.406,1.406,0,0,0-.018.174,1.436,1.436,0,1,0,2.871,0,1.418,1.418,0,0,0-.144-.615L39.477,5.6a1.418,1.418,0,0,0,.615.144,1.437,1.437,0,0,0,1.436-1.436,1.414,1.414,0,0,0-.072-.425l1.67-1.252a1.435,1.435,0,1,0-.641-1.194,1.414,1.414,0,0,0,.072.425l-1.67,1.252A1.429,1.429,0,0,0,38.8,4.922L36.879,6.843a1.411,1.411,0,0,0-1.609.26l-1.417-.708a1.406,1.406,0,0,0,.018-.174,1.436,1.436,0,1,0-1.436,1.436Zm0,0" transform="translate(-30.011 0)" fill="#a5adc6"/>
  <path id="Path_381" data-name="Path 381" d="M15.855,160.592h-.51V150.479a.478.478,0,0,0-.479-.479H12.952a.478.478,0,0,0-.479.479v10.113h-.957V153.35a.478.478,0,0,0-.479-.479H9.124a.478.478,0,0,0-.479.479v7.242H7.688v-3.414a.478.478,0,0,0-.479-.479H5.3a.478.478,0,0,0-.479.479v3.414H3.86v-5.328a.478.478,0,0,0-.479-.479H1.468a.478.478,0,0,0-.479.479v5.328H.479a.479.479,0,1,0,0,.957H15.855a.479.479,0,1,0,0-.957Zm0,0" transform="translate(0 -145.215)" fill="#a5adc6"/>
</svg>
