<svg xmlns="http://www.w3.org/2000/svg" width="18.826" height="17.57" viewBox="0 0 18.826 17.57">
  <path id="form" d="M18.091,17.57a.712.712,0,0,1-.735-.686,2.557,2.557,0,0,0-2.63-2.471H14.1a2.557,2.557,0,0,0-2.63,2.471.737.737,0,0,1-1.471,0,3.983,3.983,0,0,1,4.1-3.843h.623a3.983,3.983,0,0,1,4.1,3.843A.712.712,0,0,1,18.091,17.57ZM17.5,9.094a3.03,3.03,0,0,0-3.125-2.917,3.03,3.03,0,0,0-3.125,2.917,3.03,3.03,0,0,0,3.125,2.917A3.03,3.03,0,0,0,17.5,9.094Zm-1.471,0a1.659,1.659,0,0,1-3.309,0,1.659,1.659,0,0,1,3.309,0Zm-7.5,7.79A.712.712,0,0,0,7.8,16.2H4.412a2.851,2.851,0,0,1-2.941-2.745V4.117A2.851,2.851,0,0,1,4.412,1.373h6.768A2.851,2.851,0,0,1,14.12,4.117a.737.737,0,0,0,1.471,0A4.277,4.277,0,0,0,11.179,0H4.412A4.277,4.277,0,0,0,0,4.117v9.335A4.277,4.277,0,0,0,4.412,17.57H7.8A.712.712,0,0,0,8.53,16.883ZM9.744,7.79A.712.712,0,0,0,9.008,7.1H5.037a.688.688,0,1,0,0,1.373H9.008A.712.712,0,0,0,9.744,7.79Zm1.471-2.642a.712.712,0,0,0-.735-.686H5.037a.688.688,0,1,0,0,1.373h5.442A.712.712,0,0,0,11.215,5.147ZM9.744,13.04a.712.712,0,0,0-.735-.686H5.037a.688.688,0,1,0,0,1.373H9.008A.712.712,0,0,0,9.744,13.04Zm0-2.642a.712.712,0,0,0-.735-.686H5.037a.688.688,0,1,0,0,1.373H9.008A.712.712,0,0,0,9.744,10.4Z" transform="translate(0)" fill="#a5adc6"/>
</svg>
