<svg xmlns="http://www.w3.org/2000/svg" width="19.477" height="19.476" viewBox="0 0 19.477 19.476">
  <path id="interface_2_" data-name="interface (2)" d="M19.167,8.8,10.159.169a.608.608,0,0,0-.842,0L.3,8.813a1.028,1.028,0,0,0-.3.722,1.016,1.016,0,0,0,1.014,1.014h1.42v7.709a1.218,1.218,0,0,0,1.217,1.217H7.1a.609.609,0,0,0,.609-.609V13.593a.2.2,0,0,1,.2-.2h3.652a.2.2,0,0,1,.2.2v5.275a.609.609,0,0,0,.609.609h3.449a1.218,1.218,0,0,0,1.217-1.217V10.549h1.42a1.016,1.016,0,0,0,1.014-1.014,1.036,1.036,0,0,0-.309-.731Zm0,0" transform="translate(0 0)" fill="#a5adc6"/>
</svg>
