<svg xmlns="http://www.w3.org/2000/svg" width="35" height="35" viewBox="0 0 35 35">
  <g id="Group_2" data-name="Group 2" transform="translate(-368 -191.534)">
    <rect id="view-box" width="35" height="35" transform="translate(368 191.534)" fill="none"/>
    <path id="Shape" d="M15.459,28.036a13.888,13.888,0,0,1-6.133-1.41,14.217,14.217,0,0,1-7.011,1.41c-.4,0-.831-.009-1.276-.026A1.063,1.063,0,0,1,.1,27.389a1.061,1.061,0,0,1,.122-1.114A16.089,16.089,0,0,0,3.2,20.83,14.023,14.023,0,0,1,18.234.276a7.876,7.876,0,0,0-.972,2.018A11.864,11.864,0,0,0,5.275,20.1a1.078,1.078,0,0,1,.132.769,14.649,14.649,0,0,1-2.24,4.992A10.349,10.349,0,0,0,8.654,24.5a1.073,1.073,0,0,1,.62-.2,1.086,1.086,0,0,1,.515.131A11.867,11.867,0,0,0,27.182,12.214a7.875,7.875,0,0,0,2.018-.972A14.025,14.025,0,0,1,15.459,28.036Zm4.313-10.064H9.707a1.079,1.079,0,0,1,0-2.157H19.771a1.079,1.079,0,0,1,0,2.157ZM16.9,12.22H9.707a1.078,1.078,0,1,1,0-2.156H16.9a1.078,1.078,0,1,1,0,2.156ZM26.4,9.444h0a11.991,11.991,0,0,0-6.37-6.369A5.07,5.07,0,0,1,21.155,1.21a14.051,14.051,0,0,1,7.111,7.11A5.071,5.071,0,0,1,26.4,9.444Z" transform="translate(369.794 195.263)" fill="#929bb5"/>
    <path id="Shape-2" data-name="Shape" d="M5.032,10.064a5.032,5.032,0,1,1,5.032-5.032A5.032,5.032,0,0,1,5.032,10.064Z" transform="translate(389.566 194.904)" fill="#ff6359"/>
  </g>
</svg>
