<svg xmlns="http://www.w3.org/2000/svg" width="16.334" height="16.334" viewBox="0 0 16.334 16.334">
  <path id="browser" d="M12.506,16.334H3.828A3.833,3.833,0,0,1,0,12.506V3.828A3.833,3.833,0,0,1,3.828,0h8.677a3.833,3.833,0,0,1,3.828,3.828v8.677A3.833,3.833,0,0,1,12.506,16.334ZM3.828,1.276A2.555,2.555,0,0,0,1.276,3.828v8.677a2.555,2.555,0,0,0,2.552,2.552h8.677a2.555,2.555,0,0,0,2.552-2.552V3.828a2.555,2.555,0,0,0-2.552-2.552Zm9.954,2.839a.638.638,0,0,0-.638-.638H3.19a.638.638,0,1,0,0,1.276h9.954A.638.638,0,0,0,13.782,4.115Zm.032,5.966a.638.638,0,0,0-.638-.638H9.443a.638.638,0,0,0,0,1.276h3.733A.638.638,0,0,0,13.814,10.081Zm0-2.552a.638.638,0,0,0-.638-.638H6.03a.638.638,0,1,0,0,1.276h7.146A.638.638,0,0,0,13.814,7.529ZM7.561,10.081a.638.638,0,0,0-.638-.638H3.19a.638.638,0,1,0,0,1.276H6.923A.638.638,0,0,0,7.561,10.081Zm0,2.552A.638.638,0,0,0,6.923,12H3.19a.638.638,0,1,0,0,1.276H6.923A.638.638,0,0,0,7.561,12.633Zm4.945,0A.638.638,0,0,0,11.868,12H9.443a.638.638,0,0,0,0,1.276h2.425A.638.638,0,0,0,12.506,12.633ZM2.552,7.465a.8.8,0,1,0,.8-.8A.8.8,0,0,0,2.552,7.465Z" fill="#a5adc6"/>
</svg>
