<svg xmlns="http://www.w3.org/2000/svg" width="23.517" height="22.435" viewBox="0 0 23.517 22.435">
  <g id="color-palette" transform="translate(0 -11.73)">
    <path id="Path_377" data-name="Path 377" d="M56.016,194.85a2.544,2.544,0,1,0,2.544,2.544A2.547,2.547,0,0,0,56.016,194.85Zm0,3.705a1.161,1.161,0,1,1,1.161-1.161A1.162,1.162,0,0,1,56.016,198.555Z" transform="translate(-51.007 -174.676)" fill="#a5adc6"/>
    <path id="Path_378" data-name="Path 378" d="M153.726,325.171a2.544,2.544,0,1,0,2.544,2.544A2.547,2.547,0,0,0,153.726,325.171Zm0,3.705a1.161,1.161,0,1,1,1.161-1.161A1.162,1.162,0,0,1,153.726,328.876Z" transform="translate(-144.211 -298.988)" fill="#a5adc6"/>
    <path id="Path_379" data-name="Path 379" d="M22.879,26.161l-.014-.013-2.395-2.26a4.03,4.03,0,0,0,1.4-4.468A11.224,11.224,0,1,0,17.35,32.339a2.489,2.489,0,0,0-1.357-4.572,1.537,1.537,0,0,1-.413-3.025L19.8,29.213l.013.014a2.168,2.168,0,1,0,3.066-3.066Zm-8.936,2.172a2.968,2.968,0,0,0,2.05.817,1.1,1.1,0,0,1,.6,2.031,9.825,9.825,0,1,1,3.961-11.326,2.64,2.64,0,0,1-1.11,3.063L15.6,19.293a3.427,3.427,0,0,0-.934-3.138c-1.059-1.059-4.4-1.587-5.843-1.744a.692.692,0,0,0-.762.762c.158,1.452.683,4.782,1.745,5.843a3.428,3.428,0,0,0,3.138.933l1.618,1.715A2.908,2.908,0,0,0,13.943,28.333Zm-3.158-8.3c-.521-.521-.987-2.5-1.233-4.137,1.634.246,3.616.712,4.137,1.233a2.054,2.054,0,0,1-2.9,2.9ZM21.9,28.251a.785.785,0,0,1-1.1,0l-6.517-6.907a3.5,3.5,0,0,0,.72-.72l6.907,6.518A.784.784,0,0,1,21.9,28.251Z" transform="translate(0)" fill="#a5adc6"/>
  </g>
</svg>
